<svg width="326" height="70" viewBox="0 0 326 70" fill="none" xmlns="http://www.w3.org/2000/svg">
<path d="M100.64 32.867V31.4424H108.616V32.867H105.482V40.9087H103.773V32.8651L100.64 32.867Z" fill="#0a0a0a"/>
<path d="M120.55 31.4421V32.8667H115.978V35.3075H118.827V36.7309H115.978V39.4839H120.603V40.9084H114.269V31.4409L120.55 31.4421Z" fill="#0a0a0a"/>
<path d="M126.285 38.7736C125.917 37.9569 125.727 37.0712 125.729 36.1754C125.73 35.2797 125.922 34.3945 126.291 33.5786C126.646 32.8639 127.206 32.2712 127.899 31.8765C128.651 31.4648 129.498 31.2589 130.354 31.2798C131.062 31.266 131.765 31.4025 132.416 31.6802C132.986 31.9255 133.481 32.3188 133.848 32.8194C134.211 33.3284 134.429 33.9267 134.479 34.5502H132.634C132.602 34.2004 132.477 33.8656 132.271 33.5805C132.066 33.2954 131.789 33.0704 131.467 32.9287C131.117 32.7744 130.738 32.6981 130.355 32.7049C129.822 32.6858 129.295 32.8318 128.847 33.123C128.399 33.4143 128.052 33.8366 127.853 34.3323C127.611 34.9166 127.493 35.5448 127.507 36.177C127.493 36.8086 127.608 37.4363 127.846 38.0217C128.044 38.5108 128.381 38.9307 128.816 39.229C129.254 39.5133 129.767 39.6589 130.288 39.6468C130.694 39.6541 131.097 39.5726 131.468 39.408C131.8 39.2599 132.087 39.0287 132.303 38.7366C132.52 38.4365 132.658 38.0866 132.703 37.7191H134.535C134.481 38.3588 134.252 38.9714 133.874 39.4903C133.496 40.0092 132.983 40.4146 132.391 40.6625C131.726 40.9438 131.01 41.0825 130.289 41.0695C129.445 41.0894 128.611 40.8834 127.874 40.4727C127.187 40.0769 126.634 39.4853 126.285 38.7736Z" fill="#0a0a0a"/>
<path d="M142.206 36.7309V40.9084H140.497V31.4409H142.206V35.3063H146.953V31.4409H148.662V40.9084H146.953V36.7309H142.206Z" fill="#0a0a0a"/>
<path d="M169.112 31.4421V32.8667H164.581V35.3075H167.39V36.7309H164.581V40.9084H162.872V31.4409L169.112 31.4421Z" fill="#0a0a0a"/>
<path d="M175.181 39.4164C174.851 38.849 174.684 38.2013 174.699 37.5449V31.4409H176.408V37.5449C176.399 37.932 176.495 38.3144 176.687 38.6508C176.873 38.9637 177.146 39.2158 177.473 39.3764C177.85 39.5463 178.26 39.6342 178.674 39.6342C179.087 39.6342 179.497 39.5463 179.874 39.3764C180.201 39.2157 180.474 38.9636 180.66 38.6508C180.852 38.3144 180.948 37.932 180.939 37.5449V31.4409H182.635V37.5449C182.649 38.2012 182.483 38.8488 182.153 39.4164C181.827 39.9543 181.347 40.382 180.776 40.644C180.109 40.9261 179.393 41.0714 178.67 41.0714C177.946 41.0714 177.23 40.9261 176.564 40.644C175.99 40.3835 175.508 39.9556 175.181 39.4164Z" fill="#0a0a0a"/>
<path d="M188.204 32.867V31.4424H196.18V32.867H193.046V40.9087H191.337V32.8651L188.204 32.867Z" fill="#0a0a0a"/>
<path d="M202.22 39.4164C201.89 38.849 201.723 38.2013 201.738 37.5449V31.4409H203.447V37.5449C203.438 37.932 203.534 38.3144 203.726 38.6508C203.912 38.9637 204.185 39.2158 204.512 39.3764C204.89 39.5463 205.299 39.6342 205.713 39.6342C206.126 39.6342 206.536 39.5463 206.913 39.3764C207.24 39.2157 207.513 38.9636 207.7 38.6508C207.891 38.3143 207.987 37.9319 207.978 37.5449V31.4409H209.674V37.5449C209.689 38.2012 209.522 38.8488 209.192 39.4164C208.867 39.9544 208.387 40.3821 207.815 40.644C207.149 40.9261 206.433 41.0714 205.71 41.0714C204.986 41.0714 204.27 40.9261 203.604 40.644C203.029 40.3837 202.547 39.9558 202.22 39.4164Z" fill="#0a0a0a"/>
<path d="M220.101 31.4421C220.696 31.4286 221.286 31.5443 221.832 31.7811C222.3 31.9859 222.698 32.3229 222.977 32.7509C223.255 33.1909 223.396 33.7027 223.384 34.2226C223.386 34.6168 223.293 35.0055 223.113 35.3565C222.923 35.7246 222.654 36.0465 222.326 36.2994C221.963 36.5805 221.549 36.788 221.106 36.9099C221.769 37.3953 222.318 38.0206 222.713 38.7415C223.074 39.4128 223.294 40.1515 223.357 40.9114H221.593C221.529 40.1612 221.275 39.4397 220.854 38.8155C220.381 38.11 219.752 37.5229 219.016 37.0997H217.877V40.9084H216.167V31.4409L220.101 31.4421ZM221.132 35.2806C221.287 35.1529 221.411 34.9909 221.493 34.8073C221.575 34.6237 221.614 34.4236 221.605 34.2226C221.614 34.0378 221.583 33.8535 221.512 33.6824C221.442 33.5113 221.335 33.3577 221.199 33.2324C220.888 32.9743 220.49 32.8437 220.087 32.8667H217.879V35.6715H219.848C220.309 35.6969 220.764 35.5584 221.133 35.2806H221.132Z" fill="#0a0a0a"/>
<path d="M235.847 31.4421V32.8667H231.275V35.3075H234.124V36.7309H231.275V39.4839H235.9V40.9084H229.566V31.4409L235.847 31.4421Z" fill="#0a0a0a"/>
<path d="M241.656 39.404C241.37 38.8188 241.241 38.1689 241.283 37.5187H242.966C242.948 37.9071 243.017 38.2946 243.168 38.6526C243.3 38.9584 243.523 39.2163 243.806 39.3915C244.114 39.5705 244.465 39.6599 244.821 39.6499C245.261 39.6732 245.696 39.5471 246.055 39.2918C246.205 39.177 246.325 39.0278 246.406 38.8567C246.486 38.6856 246.524 38.4977 246.516 38.3089C246.521 38.179 246.5 38.0494 246.453 37.9282C246.407 37.8069 246.336 37.6964 246.245 37.6035C246.053 37.415 245.824 37.2675 245.573 37.1696C245.207 37.0281 244.834 36.9058 244.454 36.8032C243.919 36.6541 243.393 36.4705 242.881 36.2535C242.477 36.0723 242.125 35.7926 241.857 35.4401C241.554 35.0161 241.404 34.5024 241.429 33.9822C241.416 33.4755 241.556 32.9766 241.829 32.5499C242.115 32.1325 242.516 31.8074 242.983 31.6142C243.539 31.3822 244.137 31.2689 244.739 31.2817C245.363 31.2685 245.982 31.396 246.55 31.6547C247.049 31.8851 247.471 32.2548 247.764 32.7194C248.06 33.2044 248.215 33.7625 248.211 34.3307H246.516C246.524 34.1086 246.484 33.8874 246.4 33.6817C246.315 33.476 246.189 33.2905 246.028 33.1372C245.669 32.8331 245.208 32.6778 244.739 32.7033C244.334 32.6802 243.934 32.7976 243.605 33.0357C243.47 33.1428 243.362 33.2803 243.29 33.437C243.219 33.5937 243.185 33.7652 243.192 33.9374C243.187 34.0563 243.207 34.1749 243.251 34.2857C243.294 34.3966 243.359 34.4974 243.443 34.5819C243.623 34.7568 243.838 34.8909 244.074 34.9752C244.327 35.0703 244.685 35.1811 245.148 35.3077C245.695 35.4445 246.23 35.6241 246.749 35.8448C247.175 36.0376 247.545 36.3366 247.823 36.7131C248.142 37.1761 248.3 37.7316 248.27 38.2934C248.284 38.8164 248.14 39.3314 247.857 39.7716C247.562 40.203 247.147 40.5378 246.663 40.7343C246.085 40.9718 245.464 41.0874 244.839 41.0738C244.164 41.0914 243.495 40.9423 242.892 40.6399C242.361 40.3673 241.929 39.9351 241.656 39.404Z" fill="#0a0a0a"/>
<path d="M262.039 38.7738C261.639 37.9674 261.441 37.0758 261.463 36.1759C261.441 35.2776 261.634 34.3871 262.025 33.5781C262.38 32.8632 262.94 32.2706 263.634 31.8761C264.385 31.4642 265.232 31.2583 266.089 31.2793C266.794 31.2669 267.494 31.4034 268.144 31.6797C268.72 31.9201 269.218 32.3154 269.583 32.8218C269.948 33.3282 270.166 33.9259 270.212 34.5485H268.367C268.335 34.1988 268.21 33.864 268.005 33.5789C267.8 33.2938 267.522 33.0687 267.201 32.927C266.851 32.7728 266.471 32.6964 266.089 32.7032C265.555 32.684 265.028 32.83 264.58 33.1212C264.132 33.4125 263.785 33.8349 263.586 34.3307C263.344 34.9149 263.226 35.5431 263.24 36.1753C263.225 36.8103 263.353 37.4405 263.613 38.02C263.84 38.5194 264.21 38.9398 264.677 39.2273C265.166 39.514 265.726 39.6586 266.292 39.645C266.701 39.6432 267.106 39.5649 267.486 39.4141C267.871 39.2683 268.225 39.0522 268.531 38.7767V37.1898L266.835 37.2436L266.889 35.871H270.213V39.3025C269.768 39.8695 269.187 40.3152 268.524 40.5981C267.786 40.9176 266.989 41.077 266.184 41.066C265.313 41.0871 264.45 40.8815 263.682 40.4692C262.978 40.0794 262.407 39.4892 262.039 38.7738Z" fill="#0a0a0a"/>
<path d="M280.463 31.4421C281.058 31.4286 281.648 31.5443 282.194 31.7811C282.662 31.9859 283.061 32.3229 283.34 32.7509C283.617 33.191 283.759 33.7027 283.747 34.2226C283.748 34.6168 283.655 35.0055 283.476 35.3565C283.286 35.7247 283.017 36.0466 282.689 36.2994C282.326 36.5805 281.911 36.788 281.469 36.9099C282.11 37.3746 282.643 37.9725 283.032 38.6627C283.42 39.3529 283.655 40.119 283.72 40.9084H281.956C281.892 40.1581 281.638 39.4367 281.217 38.8125C280.744 38.1069 280.115 37.5198 279.379 37.0967H278.239V40.9084H276.53V31.4409L280.463 31.4421ZM281.494 35.2806C281.65 35.1529 281.773 34.9908 281.856 34.8073C281.938 34.6237 281.976 34.4235 281.968 34.2226C281.977 34.0379 281.945 33.8535 281.875 33.6824C281.805 33.5114 281.698 33.3577 281.562 33.2324C281.25 32.9743 280.853 32.8437 280.449 32.8667H278.241V35.6715H280.21C280.671 35.6965 281.126 35.558 281.494 35.2806Z" fill="#0a0a0a"/>
<path d="M289.784 38.774C289.413 37.9583 289.221 37.0726 289.221 36.1765C289.221 35.2804 289.413 34.3947 289.784 33.579C290.139 32.8634 290.7 32.2706 291.395 31.8769C292.156 31.4845 292.999 31.2798 293.854 31.2798C294.71 31.2798 295.553 31.4845 296.313 31.8769C297.006 32.2717 297.566 32.8644 297.92 33.579C298.291 34.3948 298.482 35.2804 298.482 36.1765C298.482 37.0725 298.291 37.9582 297.92 38.774C297.566 39.4889 297.006 40.0817 296.313 40.4767C295.553 40.8689 294.71 41.0735 293.854 41.0735C292.999 41.0735 292.156 40.8689 291.395 40.4767C290.7 40.0829 290.139 39.4898 289.784 38.774ZM292.341 39.2288C292.796 39.5139 293.324 39.6592 293.86 39.6466C294.394 39.6598 294.921 39.5144 295.372 39.2288C295.815 38.9322 296.162 38.5126 296.37 38.0215C296.839 36.8363 296.839 35.5167 296.37 34.3316C296.162 33.8407 295.815 33.4212 295.372 33.1249C294.921 32.8393 294.394 32.6938 293.86 32.7071C293.324 32.6944 292.796 32.8397 292.341 33.1249C291.896 33.4185 291.549 33.8388 291.344 34.3316C290.883 35.5184 290.883 36.8347 291.344 38.0215C291.549 38.5142 291.896 38.9351 292.341 39.2288Z" fill="#0a0a0a"/>
<path d="M304.865 39.4164C304.535 38.8489 304.368 38.2012 304.383 37.5449V31.4409H306.092V37.5449C306.083 37.9319 306.179 38.3143 306.371 38.6508C306.557 38.9638 306.831 39.2158 307.158 39.3764C307.535 39.5463 307.944 39.6342 308.358 39.6342C308.772 39.6342 309.181 39.5463 309.559 39.3764C309.886 39.2159 310.159 38.9638 310.346 38.6508C310.537 38.3143 310.634 37.9319 310.624 37.5449V31.4409H312.32V37.5449C312.335 38.2012 312.168 38.8489 311.838 39.4164C311.513 39.9545 311.033 40.3822 310.461 40.644C309.795 40.9261 309.079 41.0714 308.355 41.0714C307.632 41.0714 306.916 40.9261 306.25 40.644C305.675 40.3839 305.192 39.9559 304.865 39.4164Z" fill="#0a0a0a"/>
<path d="M322.502 31.4421C323.138 31.4284 323.77 31.5558 324.352 31.8151C324.855 32.0414 325.28 32.4122 325.573 32.8804C325.854 33.3806 326.001 33.945 326 34.5189C325.999 35.0928 325.849 35.6566 325.566 36.1556C325.266 36.6307 324.832 37.006 324.318 37.234C323.717 37.499 323.065 37.6288 322.409 37.6141H320.523V40.9084H318.81V31.4409L322.502 31.4421ZM323.377 35.986C323.643 35.8597 323.865 35.6567 324.015 35.403C324.169 35.1303 324.246 34.821 324.238 34.5078C324.246 34.2049 324.174 33.9053 324.028 33.6395C323.887 33.3944 323.677 33.1962 323.424 33.0696C323.138 32.9286 322.821 32.859 322.502 32.8667H320.521V36.1896H322.407C322.742 36.1973 323.073 36.1276 323.377 35.986Z" fill="#0a0a0a"/>
<path d="M34.6293 69.2585C27.7802 69.2585 21.085 67.2276 15.3903 63.4225C9.6955 59.6174 5.25701 54.209 2.63601 47.8814C0.0149995 41.5537 -0.670769 34.5908 0.665409 27.8734C2.00159 21.156 5.29965 14.9857 10.1426 10.1427C14.9856 5.29972 21.156 2.00159 27.8734 0.665409C34.5908 -0.670769 41.5536 0.0149995 47.8813 2.63601C54.209 5.25701 59.6173 9.69557 63.4224 15.3903C67.2275 21.0851 69.2585 27.7802 69.2585 34.6293C69.2483 43.8104 65.5965 52.6125 59.1045 59.1045C52.6125 65.5965 43.8104 69.2483 34.6293 69.2585ZM34.6293 9.24964C29.6096 9.24964 24.7028 10.7381 20.5291 13.5269C16.3554 16.3156 13.1025 20.2794 11.1816 24.9169C9.26063 29.5545 8.75802 34.6574 9.7373 39.5806C10.7166 44.5038 13.1337 49.026 16.6831 52.5754C20.2325 56.1248 24.7548 58.542 29.6779 59.5213C34.6011 60.5006 39.7041 59.998 44.3416 58.077C48.9792 56.1561 52.9429 52.9031 55.7316 48.7295C58.5204 44.5558 60.0089 39.6489 60.0089 34.6293C60.0016 27.9003 57.3254 21.449 52.5674 16.6908C47.8094 11.9326 41.3582 9.25605 34.6293 9.24847V9.24964Z" fill="#0a0a0a"/>
</svg>
